<mxfile host="app.diagrams.net" modified="2023-08-04T11:40:36.474Z" agent="Mozilla/5.0 (Windows NT 10.0; Win64; x64; rv:109.0) Gecko/20100101 Firefox/115.0" etag="kxMdktIo37igrRZsSgiI" version="21.6.5" type="device">
  <diagram id="QJjx0-fPxzvcmYibJWj1" name="Page-1">
    <mxGraphModel dx="5736" dy="3528" grid="1" gridSize="10" guides="1" tooltips="1" connect="1" arrows="1" fold="1" page="0" pageScale="1" pageWidth="827" pageHeight="583" math="0" shadow="0">
      <root>
        <mxCell id="0" />
        <mxCell id="1" parent="0" />
        <mxCell id="Pfbvt9mmgzDX8GRQt6o7-91" value="" style="group;fontSize=64;fontStyle=0" parent="1" vertex="1" connectable="0">
          <mxGeometry x="1320" y="820" width="1300" height="120.00000000000011" as="geometry" />
        </mxCell>
        <mxCell id="Pfbvt9mmgzDX8GRQt6o7-93" value="Spatial encoder/decoder" style="text;html=1;strokeColor=none;fillColor=none;align=left;verticalAlign=middle;whiteSpace=wrap;rounded=0;fontStyle=0;fontSize=64;" parent="Pfbvt9mmgzDX8GRQt6o7-91" vertex="1">
          <mxGeometry x="150" width="750" height="120" as="geometry" />
        </mxCell>
        <mxCell id="Pfbvt9mmgzDX8GRQt6o7-89" value="" style="group;fontSize=64;fontStyle=0" parent="Pfbvt9mmgzDX8GRQt6o7-91" vertex="1" connectable="0">
          <mxGeometry y="-130" width="1300" height="120.00000000000011" as="geometry" />
        </mxCell>
        <mxCell id="Pfbvt9mmgzDX8GRQt6o7-74" value="" style="shape=cube;whiteSpace=wrap;html=1;boundedLbl=1;backgroundOutline=1;darkOpacity=0.05;darkOpacity2=0.1;size=40;direction=east;flipH=1;fillColor=#e1d5e7;strokeColor=#9673a6;fontSize=64;fontStyle=0" parent="Pfbvt9mmgzDX8GRQt6o7-89" vertex="1">
          <mxGeometry width="122.5" height="120" as="geometry" />
        </mxCell>
        <mxCell id="Pfbvt9mmgzDX8GRQt6o7-75" value="Per-pixel spectral encoder/decoder" style="text;html=1;strokeColor=none;fillColor=none;align=left;verticalAlign=middle;whiteSpace=wrap;rounded=0;fontStyle=0;fontSize=64;" parent="Pfbvt9mmgzDX8GRQt6o7-89" vertex="1">
          <mxGeometry x="150" width="1150" height="120" as="geometry" />
        </mxCell>
        <mxCell id="Pfbvt9mmgzDX8GRQt6o7-92" value="" style="shape=cube;whiteSpace=wrap;html=1;boundedLbl=1;backgroundOutline=1;darkOpacity=0.05;darkOpacity2=0.1;size=40;direction=east;flipH=1;fillColor=#dae8fc;strokeColor=#6c8ebf;fontSize=64;fontStyle=0" parent="1" vertex="1">
          <mxGeometry x="1320" y="830" width="122.5" height="120" as="geometry" />
        </mxCell>
        <mxCell id="Pfbvt9mmgzDX8GRQt6o7-97" value="" style="group;fontSize=64;fontStyle=0" parent="1" vertex="1" connectable="0">
          <mxGeometry x="1490.0200000000002" y="-200" width="269.99" height="271.25" as="geometry" />
        </mxCell>
        <mxCell id="Pfbvt9mmgzDX8GRQt6o7-83" value="" style="triangle;whiteSpace=wrap;html=1;fontSize=64;rotation=90;fillColor=#666666;fillStyle=auto;gradientColor=none;fontStyle=0" parent="Pfbvt9mmgzDX8GRQt6o7-97" vertex="1">
          <mxGeometry x="41.87000000000012" y="115" width="186.25" height="126.25" as="geometry" />
        </mxCell>
        <mxCell id="Pfbvt9mmgzDX8GRQt6o7-84" value="Bottleneck" style="text;html=1;strokeColor=none;fillColor=none;align=center;verticalAlign=middle;whiteSpace=wrap;rounded=0;fontSize=64;fontStyle=0" parent="Pfbvt9mmgzDX8GRQt6o7-97" vertex="1">
          <mxGeometry width="269.99" height="80" as="geometry" />
        </mxCell>
        <mxCell id="EQMsb6BerHFTLHmI9SeI-126" value="" style="ellipse;shape=cloud;whiteSpace=wrap;html=1;fillColor=#f5f5f5;fontColor=#333333;strokeColor=#666666;fontSize=64;fontStyle=0" parent="1" vertex="1">
          <mxGeometry x="1535.02" y="114.95" width="180" height="121.5" as="geometry" />
        </mxCell>
        <mxCell id="EQMsb6BerHFTLHmI9SeI-128" value="" style="group;fontSize=64;fontStyle=0" parent="1" vertex="1" connectable="0">
          <mxGeometry x="91.47" y="-183.78000000000003" width="1408.53" height="788.78" as="geometry" />
        </mxCell>
        <mxCell id="m_Qu8GIRGxHgYCqS1YG2-1" value="" style="shape=cube;whiteSpace=wrap;html=1;boundedLbl=1;backgroundOutline=1;darkOpacity=0.05;darkOpacity2=0.1;size=110;direction=east;flipH=1;fillColor=#ffe6cc;strokeColor=#d79b00;aspect=fixed;fontSize=64;fontStyle=0" parent="EQMsb6BerHFTLHmI9SeI-128" vertex="1">
          <mxGeometry y="163.78000000000003" width="520" height="415" as="geometry" />
        </mxCell>
        <mxCell id="m_Qu8GIRGxHgYCqS1YG2-2" value="&lt;font style=&quot;font-size: 64px;&quot;&gt;H x W x C&lt;/font&gt;" style="text;html=1;strokeColor=none;fillColor=none;align=center;verticalAlign=middle;whiteSpace=wrap;rounded=0;fontSize=64;aspect=fixed;fontStyle=0" parent="EQMsb6BerHFTLHmI9SeI-128" vertex="1">
          <mxGeometry x="53.78" y="688.78" width="309.5" height="100" as="geometry" />
        </mxCell>
        <mxCell id="Pfbvt9mmgzDX8GRQt6o7-2" value="" style="shape=cube;whiteSpace=wrap;html=1;boundedLbl=1;backgroundOutline=1;darkOpacity=0.05;darkOpacity2=0.1;flipH=1;size=10;fillColor=#f8cecc;strokeColor=#b85450;aspect=fixed;fontSize=64;fontStyle=0" parent="EQMsb6BerHFTLHmI9SeI-128" vertex="1">
          <mxGeometry y="263.78000000000003" width="420" height="30" as="geometry" />
        </mxCell>
        <mxCell id="Pfbvt9mmgzDX8GRQt6o7-66" value="C per pixel" style="text;html=1;strokeColor=none;fillColor=none;align=center;verticalAlign=middle;whiteSpace=wrap;rounded=0;fontSize=64;aspect=fixed;fontStyle=0" parent="EQMsb6BerHFTLHmI9SeI-128" vertex="1">
          <mxGeometry x="510.75" y="723.7800000000001" width="230" height="74.31" as="geometry" />
        </mxCell>
        <mxCell id="EQMsb6BerHFTLHmI9SeI-64" value="" style="shape=cube;whiteSpace=wrap;html=1;boundedLbl=1;backgroundOutline=1;darkOpacity=0.05;darkOpacity2=0.1;flipH=1;size=10;fillColor=#d5e8d4;strokeColor=#82b366;aspect=fixed;fontSize=64;fontStyle=0" parent="EQMsb6BerHFTLHmI9SeI-128" vertex="1">
          <mxGeometry y="296.28000000000003" width="420" height="30" as="geometry" />
        </mxCell>
        <mxCell id="EQMsb6BerHFTLHmI9SeI-65" value="" style="rounded=0;whiteSpace=wrap;html=1;rotation=-90;fillColor=#d5e8d4;strokeColor=#82b366;fontSize=64;fontStyle=0" parent="EQMsb6BerHFTLHmI9SeI-128" vertex="1">
          <mxGeometry x="511.47" y="163.78000000000003" width="247.06" height="51.31" as="geometry" />
        </mxCell>
        <mxCell id="EQMsb6BerHFTLHmI9SeI-73" value="" style="ellipse;whiteSpace=wrap;html=1;aspect=fixed;fontSize=64;fontStyle=0" parent="EQMsb6BerHFTLHmI9SeI-128" vertex="1">
          <mxGeometry x="620.75" y="73.78000000000003" width="28.5" height="28.5" as="geometry" />
        </mxCell>
        <mxCell id="EQMsb6BerHFTLHmI9SeI-75" value="" style="shape=cube;whiteSpace=wrap;html=1;boundedLbl=1;backgroundOutline=1;darkOpacity=0.05;darkOpacity2=0.1;flipV=0;flipH=1;fillColor=#e1d5e7;strokeColor=#9673a6;size=120;fontSize=64;fontStyle=0" parent="EQMsb6BerHFTLHmI9SeI-128" vertex="1">
          <mxGeometry x="718.53" y="333.15000000000003" width="148.75" height="378.75" as="geometry" />
        </mxCell>
        <mxCell id="EQMsb6BerHFTLHmI9SeI-76" value="" style="ellipse;whiteSpace=wrap;html=1;aspect=fixed;fontSize=64;fontStyle=0" parent="EQMsb6BerHFTLHmI9SeI-128" vertex="1">
          <mxGeometry x="620.75" y="113.78000000000003" width="28.5" height="28.5" as="geometry" />
        </mxCell>
        <mxCell id="EQMsb6BerHFTLHmI9SeI-77" value="" style="ellipse;whiteSpace=wrap;html=1;aspect=fixed;fontSize=64;fontStyle=0" parent="EQMsb6BerHFTLHmI9SeI-128" vertex="1">
          <mxGeometry x="620.75" y="153.78000000000003" width="28.5" height="28.5" as="geometry" />
        </mxCell>
        <mxCell id="EQMsb6BerHFTLHmI9SeI-78" value="" style="ellipse;whiteSpace=wrap;html=1;aspect=fixed;fontSize=64;fontStyle=0" parent="EQMsb6BerHFTLHmI9SeI-128" vertex="1">
          <mxGeometry x="620.75" y="193.78000000000003" width="28.5" height="28.5" as="geometry" />
        </mxCell>
        <mxCell id="EQMsb6BerHFTLHmI9SeI-79" value="" style="ellipse;whiteSpace=wrap;html=1;aspect=fixed;fontSize=64;fontStyle=0" parent="EQMsb6BerHFTLHmI9SeI-128" vertex="1">
          <mxGeometry x="620.75" y="233.78000000000003" width="28.5" height="28.5" as="geometry" />
        </mxCell>
        <mxCell id="EQMsb6BerHFTLHmI9SeI-80" value="" style="ellipse;whiteSpace=wrap;html=1;aspect=fixed;fontSize=64;fontStyle=0" parent="EQMsb6BerHFTLHmI9SeI-128" vertex="1">
          <mxGeometry x="620.03" y="273.78000000000003" width="28.5" height="28.5" as="geometry" />
        </mxCell>
        <mxCell id="EQMsb6BerHFTLHmI9SeI-88" value="" style="rounded=0;whiteSpace=wrap;html=1;rotation=-90;fillColor=#f8cecc;strokeColor=#b85450;fontSize=64;fontStyle=0" parent="EQMsb6BerHFTLHmI9SeI-128" vertex="1">
          <mxGeometry x="510.75" y="478.28000000000003" width="247.06" height="51.31" as="geometry" />
        </mxCell>
        <mxCell id="EQMsb6BerHFTLHmI9SeI-89" value="" style="ellipse;whiteSpace=wrap;html=1;aspect=fixed;fontSize=64;fontStyle=0" parent="EQMsb6BerHFTLHmI9SeI-128" vertex="1">
          <mxGeometry x="620.03" y="388.28000000000003" width="28.5" height="28.5" as="geometry" />
        </mxCell>
        <mxCell id="EQMsb6BerHFTLHmI9SeI-90" value="" style="ellipse;whiteSpace=wrap;html=1;aspect=fixed;fontSize=64;fontStyle=0" parent="EQMsb6BerHFTLHmI9SeI-128" vertex="1">
          <mxGeometry x="620.03" y="428.28000000000003" width="28.5" height="28.5" as="geometry" />
        </mxCell>
        <mxCell id="EQMsb6BerHFTLHmI9SeI-91" value="" style="ellipse;whiteSpace=wrap;html=1;aspect=fixed;fontSize=64;fontStyle=0" parent="EQMsb6BerHFTLHmI9SeI-128" vertex="1">
          <mxGeometry x="620.03" y="468.28000000000003" width="28.5" height="28.5" as="geometry" />
        </mxCell>
        <mxCell id="EQMsb6BerHFTLHmI9SeI-92" value="" style="ellipse;whiteSpace=wrap;html=1;aspect=fixed;fontSize=64;fontStyle=0" parent="EQMsb6BerHFTLHmI9SeI-128" vertex="1">
          <mxGeometry x="620.03" y="508.28000000000003" width="28.5" height="28.5" as="geometry" />
        </mxCell>
        <mxCell id="EQMsb6BerHFTLHmI9SeI-93" value="" style="ellipse;whiteSpace=wrap;html=1;aspect=fixed;fontSize=64;fontStyle=0" parent="EQMsb6BerHFTLHmI9SeI-128" vertex="1">
          <mxGeometry x="620.03" y="548.28" width="28.5" height="28.5" as="geometry" />
        </mxCell>
        <mxCell id="EQMsb6BerHFTLHmI9SeI-94" value="" style="ellipse;whiteSpace=wrap;html=1;aspect=fixed;fontSize=64;fontStyle=0" parent="EQMsb6BerHFTLHmI9SeI-128" vertex="1">
          <mxGeometry x="619.31" y="588.28" width="28.5" height="28.5" as="geometry" />
        </mxCell>
        <mxCell id="EQMsb6BerHFTLHmI9SeI-102" value="" style="shape=cube;whiteSpace=wrap;html=1;boundedLbl=1;backgroundOutline=1;darkOpacity=0.05;darkOpacity2=0.1;flipV=0;flipH=1;fillColor=#e1d5e7;strokeColor=#9673a6;size=120;fontSize=64;fontStyle=0" parent="EQMsb6BerHFTLHmI9SeI-128" vertex="1">
          <mxGeometry x="718.53" width="148.75" height="378.75" as="geometry" />
        </mxCell>
        <mxCell id="EQMsb6BerHFTLHmI9SeI-103" value="" style="rounded=0;whiteSpace=wrap;html=1;rotation=-90;fillColor=#d5e8d4;strokeColor=#82b366;fontSize=64;fontStyle=0" parent="EQMsb6BerHFTLHmI9SeI-128" vertex="1">
          <mxGeometry x="898.53" y="163.72000000000003" width="90" height="51.31" as="geometry" />
        </mxCell>
        <mxCell id="EQMsb6BerHFTLHmI9SeI-108" value="" style="ellipse;whiteSpace=wrap;html=1;aspect=fixed;fontSize=64;fontStyle=0" parent="EQMsb6BerHFTLHmI9SeI-128" vertex="1">
          <mxGeometry x="929.28" y="155.19000000000003" width="28.5" height="28.5" as="geometry" />
        </mxCell>
        <mxCell id="EQMsb6BerHFTLHmI9SeI-109" value="" style="ellipse;whiteSpace=wrap;html=1;aspect=fixed;fontSize=64;fontStyle=0" parent="EQMsb6BerHFTLHmI9SeI-128" vertex="1">
          <mxGeometry x="928.56" y="195.19000000000003" width="28.5" height="28.5" as="geometry" />
        </mxCell>
        <mxCell id="EQMsb6BerHFTLHmI9SeI-115" value="" style="rounded=0;whiteSpace=wrap;html=1;rotation=-90;fillColor=#f8cecc;strokeColor=#b85450;fontSize=64;fontStyle=0" parent="EQMsb6BerHFTLHmI9SeI-128" vertex="1">
          <mxGeometry x="897.81" y="478.22" width="90" height="51.31" as="geometry" />
        </mxCell>
        <mxCell id="EQMsb6BerHFTLHmI9SeI-116" value="" style="ellipse;whiteSpace=wrap;html=1;aspect=fixed;fontSize=64;fontStyle=0" parent="EQMsb6BerHFTLHmI9SeI-128" vertex="1">
          <mxGeometry x="928.56" y="469.69" width="28.5" height="28.5" as="geometry" />
        </mxCell>
        <mxCell id="EQMsb6BerHFTLHmI9SeI-117" value="" style="ellipse;whiteSpace=wrap;html=1;aspect=fixed;fontSize=64;fontStyle=0" parent="EQMsb6BerHFTLHmI9SeI-128" vertex="1">
          <mxGeometry x="927.8399999999999" y="509.69" width="28.5" height="28.5" as="geometry" />
        </mxCell>
        <mxCell id="EQMsb6BerHFTLHmI9SeI-118" value="" style="endArrow=classic;html=1;rounded=0;fontSize=64;fontStyle=0" parent="EQMsb6BerHFTLHmI9SeI-128" edge="1">
          <mxGeometry width="50" height="50" relative="1" as="geometry">
            <mxPoint x="988.53" y="183.78000000000003" as="sourcePoint" />
            <mxPoint x="1108.53" y="303.78000000000003" as="targetPoint" />
          </mxGeometry>
        </mxCell>
        <mxCell id="EQMsb6BerHFTLHmI9SeI-119" value="" style="endArrow=classic;html=1;rounded=0;fontSize=64;fontStyle=0" parent="EQMsb6BerHFTLHmI9SeI-128" edge="1">
          <mxGeometry width="50" height="50" relative="1" as="geometry">
            <mxPoint x="988.53" y="503.78000000000003" as="sourcePoint" />
            <mxPoint x="1108.53" y="383.78000000000003" as="targetPoint" />
          </mxGeometry>
        </mxCell>
        <mxCell id="EQMsb6BerHFTLHmI9SeI-120" value="" style="shape=cube;whiteSpace=wrap;html=1;boundedLbl=1;backgroundOutline=1;darkOpacity=0.05;darkOpacity2=0.1;size=70;direction=east;flipH=1;fillColor=#ffe6cc;strokeColor=#d79b00;flipV=0;fontSize=64;fontStyle=0" parent="EQMsb6BerHFTLHmI9SeI-128" vertex="1">
          <mxGeometry x="1165.16" y="153.78000000000003" width="138.5" height="408.59" as="geometry" />
        </mxCell>
        <mxCell id="EQMsb6BerHFTLHmI9SeI-121" value="H x W x C&#39;" style="text;html=1;strokeColor=none;fillColor=none;align=center;verticalAlign=middle;whiteSpace=wrap;rounded=0;fontSize=64;aspect=fixed;fontStyle=0" parent="EQMsb6BerHFTLHmI9SeI-128" vertex="1">
          <mxGeometry x="1079.66" y="690.63" width="309.5" height="100" as="geometry" />
        </mxCell>
        <mxCell id="EQMsb6BerHFTLHmI9SeI-123" value="" style="shape=cube;whiteSpace=wrap;html=1;boundedLbl=1;backgroundOutline=1;darkOpacity=0.05;darkOpacity2=0.1;size=70;direction=east;flipH=1;fillColor=#dae8fc;strokeColor=#6c8ebf;flipV=0;fontSize=64;fontStyle=0" parent="EQMsb6BerHFTLHmI9SeI-128" vertex="1">
          <mxGeometry x="1303.66" y="155.19000000000003" width="104.87" height="408.59" as="geometry" />
        </mxCell>
        <mxCell id="EQMsb6BerHFTLHmI9SeI-162" value="C&#39; per pixel" style="text;html=1;strokeColor=none;fillColor=none;align=center;verticalAlign=middle;whiteSpace=wrap;rounded=0;fontSize=64;aspect=fixed;fontStyle=0" parent="EQMsb6BerHFTLHmI9SeI-128" vertex="1">
          <mxGeometry x="828.53" y="701.62" width="241.47" height="78.02" as="geometry" />
        </mxCell>
        <mxCell id="EQMsb6BerHFTLHmI9SeI-129" value="" style="group;flipH=1;fontSize=64;fontStyle=0" parent="1" vertex="1" connectable="0">
          <mxGeometry x="1760.01" y="-183.78000000000003" width="1408.53" height="788.78" as="geometry" />
        </mxCell>
        <mxCell id="EQMsb6BerHFTLHmI9SeI-130" value="" style="shape=cube;whiteSpace=wrap;html=1;boundedLbl=1;backgroundOutline=1;darkOpacity=0.05;darkOpacity2=0.1;size=110;direction=east;flipH=1;fillColor=#ffe6cc;strokeColor=#d79b00;aspect=fixed;fontSize=64;fontStyle=0" parent="EQMsb6BerHFTLHmI9SeI-129" vertex="1">
          <mxGeometry x="888.5299999999997" y="163.78000000000003" width="520" height="415" as="geometry" />
        </mxCell>
        <mxCell id="EQMsb6BerHFTLHmI9SeI-131" value="H x W x C" style="text;html=1;strokeColor=none;fillColor=none;align=center;verticalAlign=middle;whiteSpace=wrap;rounded=0;fontSize=64;aspect=fixed;fontStyle=0" parent="EQMsb6BerHFTLHmI9SeI-129" vertex="1">
          <mxGeometry x="993.7799999999997" y="688.78" width="309.5" height="100" as="geometry" />
        </mxCell>
        <mxCell id="EQMsb6BerHFTLHmI9SeI-133" value="C per pixel" style="text;html=1;strokeColor=none;fillColor=none;align=center;verticalAlign=middle;whiteSpace=wrap;rounded=0;fontSize=64;aspect=fixed;fontStyle=0" parent="EQMsb6BerHFTLHmI9SeI-129" vertex="1">
          <mxGeometry x="653.2799999999997" y="723.7800000000001" width="230" height="74.31" as="geometry" />
        </mxCell>
        <mxCell id="EQMsb6BerHFTLHmI9SeI-135" value="" style="rounded=0;whiteSpace=wrap;html=1;rotation=-90;fillColor=#d5e8d4;strokeColor=#82b366;fontSize=64;fontStyle=0" parent="EQMsb6BerHFTLHmI9SeI-129" vertex="1">
          <mxGeometry x="649.9999999999998" y="163.78000000000003" width="247.06" height="51.31" as="geometry" />
        </mxCell>
        <mxCell id="EQMsb6BerHFTLHmI9SeI-136" value="" style="ellipse;whiteSpace=wrap;html=1;aspect=fixed;fontSize=64;fontStyle=0" parent="EQMsb6BerHFTLHmI9SeI-129" vertex="1">
          <mxGeometry x="759.2799999999997" y="73.78000000000003" width="28.5" height="28.5" as="geometry" />
        </mxCell>
        <mxCell id="EQMsb6BerHFTLHmI9SeI-137" value="" style="shape=cube;whiteSpace=wrap;html=1;boundedLbl=1;backgroundOutline=1;darkOpacity=0.05;darkOpacity2=0.1;flipV=0;flipH=1;fillColor=#e1d5e7;strokeColor=#9673a6;size=120;fontSize=64;fontStyle=0" parent="EQMsb6BerHFTLHmI9SeI-129" vertex="1">
          <mxGeometry x="541.2499999999998" y="333.15000000000003" width="148.75" height="378.75" as="geometry" />
        </mxCell>
        <mxCell id="EQMsb6BerHFTLHmI9SeI-138" value="" style="ellipse;whiteSpace=wrap;html=1;aspect=fixed;fontSize=64;fontStyle=0" parent="EQMsb6BerHFTLHmI9SeI-129" vertex="1">
          <mxGeometry x="759.2799999999997" y="113.78000000000003" width="28.5" height="28.5" as="geometry" />
        </mxCell>
        <mxCell id="EQMsb6BerHFTLHmI9SeI-139" value="" style="ellipse;whiteSpace=wrap;html=1;aspect=fixed;fontSize=64;fontStyle=0" parent="EQMsb6BerHFTLHmI9SeI-129" vertex="1">
          <mxGeometry x="759.2799999999997" y="153.78000000000003" width="28.5" height="28.5" as="geometry" />
        </mxCell>
        <mxCell id="EQMsb6BerHFTLHmI9SeI-140" value="" style="ellipse;whiteSpace=wrap;html=1;aspect=fixed;fontSize=64;fontStyle=0" parent="EQMsb6BerHFTLHmI9SeI-129" vertex="1">
          <mxGeometry x="759.2799999999997" y="193.78000000000003" width="28.5" height="28.5" as="geometry" />
        </mxCell>
        <mxCell id="EQMsb6BerHFTLHmI9SeI-141" value="" style="ellipse;whiteSpace=wrap;html=1;aspect=fixed;fontSize=64;fontStyle=0" parent="EQMsb6BerHFTLHmI9SeI-129" vertex="1">
          <mxGeometry x="759.2799999999997" y="233.78000000000003" width="28.5" height="28.5" as="geometry" />
        </mxCell>
        <mxCell id="EQMsb6BerHFTLHmI9SeI-142" value="" style="ellipse;whiteSpace=wrap;html=1;aspect=fixed;fontSize=64;fontStyle=0" parent="EQMsb6BerHFTLHmI9SeI-129" vertex="1">
          <mxGeometry x="759.9999999999998" y="273.78000000000003" width="28.5" height="28.5" as="geometry" />
        </mxCell>
        <mxCell id="EQMsb6BerHFTLHmI9SeI-143" value="" style="rounded=0;whiteSpace=wrap;html=1;rotation=-90;fillColor=#f8cecc;strokeColor=#b85450;fontSize=64;fontStyle=0" parent="EQMsb6BerHFTLHmI9SeI-129" vertex="1">
          <mxGeometry x="650.7199999999998" y="478.28000000000003" width="247.06" height="51.31" as="geometry" />
        </mxCell>
        <mxCell id="EQMsb6BerHFTLHmI9SeI-144" value="" style="ellipse;whiteSpace=wrap;html=1;aspect=fixed;fontSize=64;fontStyle=0" parent="EQMsb6BerHFTLHmI9SeI-129" vertex="1">
          <mxGeometry x="759.9999999999998" y="388.28000000000003" width="28.5" height="28.5" as="geometry" />
        </mxCell>
        <mxCell id="EQMsb6BerHFTLHmI9SeI-145" value="" style="ellipse;whiteSpace=wrap;html=1;aspect=fixed;fontSize=64;fontStyle=0" parent="EQMsb6BerHFTLHmI9SeI-129" vertex="1">
          <mxGeometry x="759.9999999999998" y="428.28000000000003" width="28.5" height="28.5" as="geometry" />
        </mxCell>
        <mxCell id="EQMsb6BerHFTLHmI9SeI-146" value="" style="ellipse;whiteSpace=wrap;html=1;aspect=fixed;fontSize=64;fontStyle=0" parent="EQMsb6BerHFTLHmI9SeI-129" vertex="1">
          <mxGeometry x="759.9999999999998" y="468.28000000000003" width="28.5" height="28.5" as="geometry" />
        </mxCell>
        <mxCell id="EQMsb6BerHFTLHmI9SeI-147" value="" style="ellipse;whiteSpace=wrap;html=1;aspect=fixed;fontSize=64;fontStyle=0" parent="EQMsb6BerHFTLHmI9SeI-129" vertex="1">
          <mxGeometry x="759.9999999999998" y="508.28000000000003" width="28.5" height="28.5" as="geometry" />
        </mxCell>
        <mxCell id="EQMsb6BerHFTLHmI9SeI-148" value="" style="ellipse;whiteSpace=wrap;html=1;aspect=fixed;fontSize=64;fontStyle=0" parent="EQMsb6BerHFTLHmI9SeI-129" vertex="1">
          <mxGeometry x="759.9999999999998" y="548.28" width="28.5" height="28.5" as="geometry" />
        </mxCell>
        <mxCell id="EQMsb6BerHFTLHmI9SeI-149" value="" style="ellipse;whiteSpace=wrap;html=1;aspect=fixed;fontSize=64;fontStyle=0" parent="EQMsb6BerHFTLHmI9SeI-129" vertex="1">
          <mxGeometry x="760.7199999999998" y="588.28" width="28.5" height="28.5" as="geometry" />
        </mxCell>
        <mxCell id="EQMsb6BerHFTLHmI9SeI-150" value="" style="shape=cube;whiteSpace=wrap;html=1;boundedLbl=1;backgroundOutline=1;darkOpacity=0.05;darkOpacity2=0.1;flipV=0;flipH=1;fillColor=#e1d5e7;strokeColor=#9673a6;size=120;fontSize=64;fontStyle=0" parent="EQMsb6BerHFTLHmI9SeI-129" vertex="1">
          <mxGeometry x="541.2499999999998" width="148.75" height="378.75" as="geometry" />
        </mxCell>
        <mxCell id="EQMsb6BerHFTLHmI9SeI-151" value="" style="rounded=0;whiteSpace=wrap;html=1;rotation=-90;fillColor=#d5e8d4;strokeColor=#82b366;fontSize=64;fontStyle=0" parent="EQMsb6BerHFTLHmI9SeI-129" vertex="1">
          <mxGeometry x="419.9999999999998" y="163.72000000000003" width="90" height="51.31" as="geometry" />
        </mxCell>
        <mxCell id="EQMsb6BerHFTLHmI9SeI-152" value="" style="ellipse;whiteSpace=wrap;html=1;aspect=fixed;fontSize=64;fontStyle=0" parent="EQMsb6BerHFTLHmI9SeI-129" vertex="1">
          <mxGeometry x="450.7499999999998" y="155.19000000000003" width="28.5" height="28.5" as="geometry" />
        </mxCell>
        <mxCell id="EQMsb6BerHFTLHmI9SeI-153" value="" style="ellipse;whiteSpace=wrap;html=1;aspect=fixed;fontSize=64;fontStyle=0" parent="EQMsb6BerHFTLHmI9SeI-129" vertex="1">
          <mxGeometry x="451.4699999999998" y="195.19000000000003" width="28.5" height="28.5" as="geometry" />
        </mxCell>
        <mxCell id="EQMsb6BerHFTLHmI9SeI-154" value="" style="rounded=0;whiteSpace=wrap;html=1;rotation=-90;fillColor=#f8cecc;strokeColor=#b85450;fontSize=64;fontStyle=0" parent="EQMsb6BerHFTLHmI9SeI-129" vertex="1">
          <mxGeometry x="420.7199999999998" y="478.22" width="90" height="51.31" as="geometry" />
        </mxCell>
        <mxCell id="EQMsb6BerHFTLHmI9SeI-155" value="" style="ellipse;whiteSpace=wrap;html=1;aspect=fixed;fontSize=64;fontStyle=0" parent="EQMsb6BerHFTLHmI9SeI-129" vertex="1">
          <mxGeometry x="451.4699999999998" y="469.69" width="28.5" height="28.5" as="geometry" />
        </mxCell>
        <mxCell id="EQMsb6BerHFTLHmI9SeI-156" value="" style="ellipse;whiteSpace=wrap;html=1;aspect=fixed;fontSize=64;fontStyle=0" parent="EQMsb6BerHFTLHmI9SeI-129" vertex="1">
          <mxGeometry x="452.1899999999998" y="509.69" width="28.5" height="28.5" as="geometry" />
        </mxCell>
        <mxCell id="EQMsb6BerHFTLHmI9SeI-157" value="" style="endArrow=classic;html=1;rounded=0;fontSize=64;fontStyle=0" parent="EQMsb6BerHFTLHmI9SeI-129" edge="1">
          <mxGeometry width="50" height="50" relative="1" as="geometry">
            <mxPoint x="419.9999999999998" y="183.78000000000003" as="sourcePoint" />
            <mxPoint x="299.9999999999998" y="303.78000000000003" as="targetPoint" />
          </mxGeometry>
        </mxCell>
        <mxCell id="EQMsb6BerHFTLHmI9SeI-158" value="" style="endArrow=classic;html=1;rounded=0;fontSize=64;fontStyle=0" parent="EQMsb6BerHFTLHmI9SeI-129" edge="1">
          <mxGeometry width="50" height="50" relative="1" as="geometry">
            <mxPoint x="419.9999999999998" y="503.78000000000003" as="sourcePoint" />
            <mxPoint x="299.9999999999998" y="383.78000000000003" as="targetPoint" />
          </mxGeometry>
        </mxCell>
        <mxCell id="EQMsb6BerHFTLHmI9SeI-159" value="" style="shape=cube;whiteSpace=wrap;html=1;boundedLbl=1;backgroundOutline=1;darkOpacity=0.05;darkOpacity2=0.1;size=70;direction=east;flipH=1;fillColor=#ffe6cc;strokeColor=#d79b00;flipV=0;fontSize=64;fontStyle=0" parent="EQMsb6BerHFTLHmI9SeI-129" vertex="1">
          <mxGeometry x="104.86999999999966" y="153.78000000000003" width="138.5" height="408.59" as="geometry" />
        </mxCell>
        <mxCell id="EQMsb6BerHFTLHmI9SeI-160" value="H x W x C&#39;" style="text;html=1;strokeColor=none;fillColor=none;align=center;verticalAlign=middle;whiteSpace=wrap;rounded=0;fontSize=64;aspect=fixed;fontStyle=0" parent="EQMsb6BerHFTLHmI9SeI-129" vertex="1">
          <mxGeometry x="19.369999999999663" y="690.64" width="309.5" height="100" as="geometry" />
        </mxCell>
        <mxCell id="EQMsb6BerHFTLHmI9SeI-161" value="" style="shape=cube;whiteSpace=wrap;html=1;boundedLbl=1;backgroundOutline=1;darkOpacity=0.05;darkOpacity2=0.1;size=70;direction=east;flipH=1;fillColor=#dae8fc;strokeColor=#6c8ebf;flipV=0;fontSize=64;fontStyle=0" parent="EQMsb6BerHFTLHmI9SeI-129" vertex="1">
          <mxGeometry x="-3.410605131648481e-13" y="155.19000000000003" width="104.87" height="408.59" as="geometry" />
        </mxCell>
        <mxCell id="EQMsb6BerHFTLHmI9SeI-134" value="" style="shape=cube;whiteSpace=wrap;html=1;boundedLbl=1;backgroundOutline=1;darkOpacity=0.05;darkOpacity2=0.1;flipH=1;size=10;fillColor=#d5e8d4;strokeColor=#82b366;aspect=fixed;fontSize=64;fontStyle=0" parent="EQMsb6BerHFTLHmI9SeI-129" vertex="1">
          <mxGeometry x="883.2799999999997" y="296.28000000000003" width="420" height="30" as="geometry" />
        </mxCell>
        <mxCell id="EQMsb6BerHFTLHmI9SeI-163" value="C&#39; per pixel" style="text;html=1;strokeColor=none;fillColor=none;align=center;verticalAlign=middle;whiteSpace=wrap;rounded=0;fontSize=64;aspect=fixed;fontStyle=0" parent="EQMsb6BerHFTLHmI9SeI-129" vertex="1">
          <mxGeometry x="344.26000000000005" y="723.7799999999999" width="241.47" height="78.02" as="geometry" />
        </mxCell>
        <mxCell id="EQMsb6BerHFTLHmI9SeI-132" value="" style="shape=cube;whiteSpace=wrap;html=1;boundedLbl=1;backgroundOutline=1;darkOpacity=0.05;darkOpacity2=0.1;flipH=1;size=10;fillColor=#f8cecc;strokeColor=#b85450;aspect=fixed;fontSize=64;fontStyle=0" parent="EQMsb6BerHFTLHmI9SeI-129" vertex="1">
          <mxGeometry x="883.2799999999997" y="272.28000000000003" width="420" height="30" as="geometry" />
        </mxCell>
      </root>
    </mxGraphModel>
  </diagram>
</mxfile>
